PathFileType	4	(X/Y/Z)	/Users/itak/Documents/Research/Walk-IL/dataset/trc/00552_00009.trc
DataRate	CameraRate	NumFrames	NumMarkers	Units	OrigDataRate	OrigDataStartFrame	OrigNumFrames
100.000000	100.000000	4	53	mm	100.000000	277	554
Frame#	Time	RPSI			LPSI			L3			STRN			T10			C7			CLAV			RBAK			LBAK			LSHO			LUPA			LAEL			LAOL			LWTS			LWPS			LFRA			LIFD			LHPS			LHTS			RSHO			RUPA			RAEL			RAOL			RWTS			RWPS			RFRA			RIFD			RHTS			RHPS			RBHD			LFHD			RFHD			LBHD			LHIP			RHIP			RASI			LASI			LKNE			LTHI			LANK			LTIP			LTOE			LMT1			LMT5			LHEE			RKNE			RTHI			RANK			RTIP			RTOE			RMT1			RMT5			RHEE			
		X1	Y1	Z1	X2	Y2	Z2	X3	Y3	Z3	X4	Y4	Z4	X5	Y5	Z5	X6	Y6	Z6	X7	Y7	Z7	X8	Y8	Z8	X9	Y9	Z9	X10	Y10	Z10	X11	Y11	Z11	X12	Y12	Z12	X13	Y13	Z13	X14	Y14	Z14	X15	Y15	Z15	X16	Y16	Z16	X17	Y17	Z17	X18	Y18	Z18	X19	Y19	Z19	X20	Y20	Z20	X21	Y21	Z21	X22	Y22	Z22	X23	Y23	Z23	X24	Y24	Z24	X25	Y25	Z25	X26	Y26	Z26	X27	Y27	Z27	X28	Y28	Z28	X29	Y29	Z29	X30	Y30	Z30	X31	Y31	Z31	X32	Y32	Z32	X33	Y33	Z33	X34	Y34	Z34	X35	Y35	Z35	X36	Y36	Z36	X37	Y37	Z37	X38	Y38	Z38	X39	Y39	Z39	X40	Y40	Z40	X41	Y41	Z41	X42	Y42	Z42	X43	Y43	Z43	X44	Y44	Z44	X45	Y45	Z45	X46	Y46	Z46	X47	Y47	Z47	X48	Y48	Z48	X49	Y49	Z49	X50	Y50	Z50	X51	Y51	Z51	X52	Y52	Z52	X53	Y53	Z53	

278	2.77	-96.50917816162109	990.47021484375	296.435546875	-90.74359130859375	992.9597778320312	163.4336242675781	-85.13855743408203	1091.3125	232.9654541015625	154.2267303466797	1271.0830078125	225.9120330810547	-89.20923614501953	1215.994018554688	236.7065582275391	-31.14459037780762	1487.445556640625	254.9668121337891	138.1466827392578	1382.25830078125	227.4976959228516	-98.85671997070312	1364.513427734375	344.8976745605469	-74.96723175048828	1436.596435546875	167.1724853515625	15.43128490447998	1460.593383789062	77.2254638671875	-10.05723285675049	1336.53759765625	-2.369645833969116	-10.00965023040771	1114.940673828125	-31.5966625213623	-88.78713989257812	1111.109130859375	32.01948928833008	74.88865661621094	865.76708984375	-2.171413421630859	19.72669219970703	848.0328979492188	-67.92034149169922	7.101687431335449	1027.999389648438	-43.29467010498047	56.2412109375	695.6890258789062	-8.907773017883301	24.24147987365723	787.5599975585938	-61.40466690063477	81.44109344482422	787.3614501953125	-23.90410804748535	41.04436111450195	1444.202392578125	402.9410400390625	25.90388298034668	1379.095092773438	470.208740234375	16.08811187744141	1092.005615234375	519.645751953125	-42.06371307373047	1076.311279296875	495.4279479980469	135.1688385009766	862.3007202148438	482.2939453125	93.83036804199219	847.4182739257812	551.7958984375	24.51993751525879	1037.054077148438	528.6484985351562	134.7002716064453	688.0680541992188	493.8148193359375	156.6152191162109	769.2179565429688	497.5501708984375	103.8607406616211	771.7420654296875	550.1693115234375	66.84098815917969	1666.004272460938	311.80224609375	211.4514617919922	1675.940551757812	162.5150756835938	207.254638671875	1673.961303710938	306.5958557128906	78.39479827880859	1665.73486328125	146.7628173828125	50.90897750854492	922.5654296875	42.72212219238281	15.73608493804932	915.4019775390625	423.0234680175781	108.344612121582	943.9403076171875	374.2686462402344	123.6744537353516	951.39111328125	99.27955627441406	210.6527404785156	506.2976379394531	131.9079742431641	156.6241912841797	660.672607421875	81.66654205322266	145.5761871337891	31.40988922119141	160.6006317138672	165.2657623291016	249.8807525634766	141.109619140625	356.034423828125	41.80374908447266	224.6393890380859	282.6098937988281	45.77676773071289	257.4103393554688	268.0632934570312	35.53697204589844	149.2508239746094	76.62429046630859	37.38263320922852	213.47900390625	-11.33788871765137	474.156494140625	394.467529296875	40.2451171875	760.4884643554688	420.1486511230469	-379.7899169921875	153.1185607910156	354.4431457519531	-94.9691162109375	351.5869445800781	380.294921875	-221.1331787109375	35.90873336791992	289.9793395996094	-266.0946960449219	72.99706268310547	257.6898803710938	-291.244140625	57.48470687866211	357.5113830566406	-413.0804748535156	202.3645172119141	301.4306030273438	
279	2.78	-87.55818176269531	990.9862060546875	295.7167053222656	-81.30138397216797	994.4086303710938	162.8161773681641	-75.69017791748047	1092.419067382812	232.2226104736328	163.4966888427734	1272.455688476562	226.0354766845703	-79.839599609375	1217.017456054688	235.7433013916016	-22.33354949951172	1488.642211914062	253.9487152099609	147.3162841796875	1383.645141601562	227.4961547851562	-90.25653839111328	1365.60546875	343.6097717285156	-65.56049346923828	1437.69873046875	165.9479217529297	25.33493232727051	1461.787963867188	76.54969787597656	0.8242500424385071	1337.76416015625	-3.354615926742554	2.563982963562012	1116.16455078125	-32.99995422363281	-76.84648895263672	1111.637817382812	29.97214317321777	90.22369384765625	868.214111328125	-2.902582883834839	35.76794815063477	849.6788940429688	-68.96211242675781	20.74880027770996	1029.457763671875	-44.56124114990234	74.35796356201172	697.9306030273438	-9.821274757385254	41.24906539916992	789.284912109375	-62.47589492797852	98.2161865234375	789.9832153320312	-24.65040588378906	49.24039459228516	1445.658325195312	402.3797912597656	33.81255340576172	1380.582641601562	469.5952758789062	23.79735946655273	1093.495849609375	518.9833374023438	-34.30910491943359	1077.848754882812	494.661865234375	142.7124938964844	863.5185546875	481.9920959472656	101.1037902832031	848.791259765625	551.647216796875	32.12997436523438	1038.558349609375	528.0996704101562	141.2465515136719	689.1832885742188	493.6429748535156	163.5409088134766	770.2341918945312	497.3370971679688	110.7831878662109	773.06298828125	549.95263671875	75.65945434570312	1667.343505859375	311.3577880859375	220.33544921875	1677.333862304688	162.1145629882812	216.0488586425781	1675.3662109375	306.1875915527344	87.23028564453125	1667.021484375	146.2994232177734	60.23748397827148	923.9793701171875	41.77290725708008	25.30131340026855	915.649658203125	421.8577575683594	117.5481567382812	944.9933471679688	373.426025390625	133.0688934326172	952.5362548828125	98.49540710449219	214.6541137695312	505.679443359375	131.6282501220703	162.6117858886719	660.672607421875	81.48146820068359	145.5914611816406	31.4218921661377	160.5946044921875	166.9147491455078	249.6324462890625	141.0027008056641	356.0333557128906	41.82243728637695	224.7986602783203	282.5936584472656	45.71984481811523	257.5125732421875	268.0677795410156	35.56131362915039	149.2820129394531	76.57156372070312	37.35243225097656	213.4218902587891	8.03831672668457	473.6166687011719	396.4374084472656	52.40227127075195	761.2504272460938	419.7746276855469	-367.4638671875	163.2978973388672	358.0238952636719	-76.9986572265625	352.2790222167969	382.3270263671875	-215.7798767089844	36.00569534301758	291.6585693359375	-259.3844299316406	76.84549713134766	259.6469116210938	-283.3499145507812	63.29207992553711	359.9695129394531	-399.3806762695312	213.5769653320312	305.5030212402344	
280	2.79	-78.81956481933594	991.4147338867188	295.1000061035156	-72.05118560791016	995.8028564453125	162.2972106933594	-66.43935394287109	1093.493896484375	231.5610656738281	172.5964508056641	1273.735717773438	226.2214660644531	-70.68168640136719	1218.015502929688	234.8176879882812	-13.61516761779785	1489.81201171875	252.9177093505859	156.3652954101562	1384.93798828125	227.5684204101562	-81.83387756347656	1366.697631835938	342.2921142578125	-56.21423721313477	1438.802124023438	164.6785736083984	35.23705291748047	1462.924560546875	75.89436340332031	11.76900577545166	1338.94970703125	-4.348312854766846	15.29538440704346	1117.383056640625	-34.43573760986328	-64.80656433105469	1112.085571289062	27.8129711151123	105.6933059692383	870.6865844726562	-3.574802398681641	52.01991653442383	851.3445434570312	-69.99531555175781	34.55087661743164	1030.897094726562	-45.83525085449219	92.74636840820312	700.2418823242188	-10.75926113128662	58.49705123901367	791.0576171875	-63.55224227905273	115.1880722045898	792.6775512695312	-25.37103652954102	57.26559829711914	1447.054565429688	401.8392333984375	41.52206039428711	1382.012451171875	469.0075073242188	31.35237884521484	1094.928100585938	518.3706665039062	-26.66343879699707	1079.291381835938	493.9289855957031	150.3348999023438	864.8504028320312	481.8291931152344	108.4889526367188	850.2003173828125	551.5469970703125	39.61658096313477	1040.006469726562	527.6101684570312	148.2488861083984	690.4345703125	493.5743103027344	170.7698059082031	771.4251708984375	497.2344360351562	117.964485168457	774.4537353515625	549.79296875	84.40974426269531	1668.594360351562	310.9495544433594	229.1874694824219	1678.642822265625	161.7911987304688	224.7784118652344	1676.701049804688	305.862060546875	96.04871368408203	1668.21435546875	145.8812103271484	69.38800048828125	925.352294921875	40.89464569091797	34.83606338500977	915.84326171875	420.7361755371094	126.6014404296875	946.0648193359375	372.6614074707031	142.2667083740234	953.6380615234375	97.76973724365234	218.4765319824219	505.0901184082031	131.4872436523438	168.5453643798828	660.7174682617188	81.41471862792969	145.6040802001953	31.42887878417969	160.5855560302734	168.5552368164062	249.4073944091797	140.8755950927734	356.0138854980469	41.84277725219727	224.9393157958984	282.5657348632812	45.65800857543945	257.6002197265625	268.0770263671875	35.57778549194336	149.3048706054688	76.53275299072266	37.34045791625977	213.3746795654297	27.79938316345215	473.2568664550781	398.0968322753906	64.61695098876953	762.0097045898438	419.4290161132812	-353.9386291503906	173.1683044433594	361.475341796875	-58.44483947753906	353.0338745117188	383.9795837402344	-208.7180938720703	36.54087829589844	294.0745239257812	-250.989990234375	80.89268493652344	262.0159301757812	-273.8735046386719	69.51731872558594	362.8576049804688	-384.7537536621094	224.0780792236328	309.3106079101562	
281	2.8	-70.26652526855469	991.7951049804688	294.5665588378906	-62.97136688232422	997.13037109375	161.8419036865234	-57.36420440673828	1094.540405273438	230.9443511962891	181.5307312011719	1274.93603515625	226.4631195068359	-61.71416091918945	1218.99072265625	233.9204711914062	-4.984689235687256	1490.955444335938	251.8871765136719	165.2929229736328	1386.1484375	227.7115783691406	-73.57832336425781	1367.793090820312	340.9623413085938	-46.93989181518555	1439.909912109375	163.3775177001953	45.12252807617188	1464.00830078125	75.26654815673828	22.76374626159668	1340.096801757812	-5.33797550201416	28.18579292297363	1118.595703125	-35.88197708129883	-52.65216064453125	1112.4580078125	25.5456600189209	121.2733001708984	873.174072265625	-4.171752452850342	68.48001098632812	853.0391845703125	-71.01980590820312	48.50376129150391	1032.3251953125	-47.09804534912109	111.3570251464844	702.62353515625	-11.70995998382568	75.95356750488281	792.8866577148438	-64.62490844726562	132.3190307617188	795.4367065429688	-26.04365730285645	65.1280517578125	1448.392333984375	401.3226318359375	49.04875946044922	1383.3857421875	468.4478759765625	38.74900054931641	1096.300415039062	517.8162231445312	-19.13757514953613	1080.642578125	493.22412109375	158.0178833007812	866.2978515625	481.8206787109375	115.9664001464844	851.63916015625	551.4873657226562	46.97473907470703	1041.397216796875	527.1702880859375	155.7264556884766	691.8250732421875	493.61474609375	178.2991027832031	772.79541015625	497.2732543945312	125.386474609375	775.9053955078125	549.6884155273438	93.10260772705078	1669.766845703125	310.5754699707031	238.0116577148438	1679.859375	161.5418243408203	233.4542083740234	1677.964721679688	305.6145324707031	104.8600006103516	1669.320190429688	145.5076751708984	78.39394378662109	926.6649780273438	40.09043884277344	44.30656433105469	916.0645751953125	419.7050476074219	135.51953125	947.1878051757812	371.9801940917969	151.2896575927734	954.685791015625	97.11003112792969	222.1648864746094	504.5145568847656	131.4741516113281	174.4493103027344	660.782958984375	81.44149017333984	145.6162719726562	31.43531036376953	160.5855407714844	170.1904449462891	249.2015228271484	140.7492218017578	355.9811096191406	41.85027313232422	225.0715026855469	282.5327758789062	45.58691787719727	257.6831665039062	268.0902099609375	35.59177017211914	149.3255462646484	76.50174713134766	37.34102630615234	213.3340148925781	47.85197067260742	473.1508178710938	399.4559936523438	76.91334533691406	762.8345947265625	419.1055908203125	-339.2727966308594	182.4091796875	364.6934204101562	-39.39645767211914	353.904052734375	385.30029296875	-199.6004943847656	37.62534332275391	297.3108215332031	-240.6205902099609	84.99817657470703	264.8619384765625	-262.6435241699219	75.92005920410156	366.1804809570312	-369.2382202148438	233.5589141845703	312.688232421875	
